<mxfile host="app.diagrams.net" modified="2020-04-03T09:01:17.676Z" agent="5.0 (X11; Linux x86_64) AppleWebKit/537.36 (KHTML, like Gecko) Chrome/80.0.3987.149 Safari/537.36" etag="7-mOSxSr9TnhiByHmz-H" version="12.9.6" type="github">
  <diagram id="xgrzt0RMuhMkAyC4IfRt" name="Page-1">
    <mxGraphModel dx="813" dy="510" grid="1" gridSize="10" guides="1" tooltips="1" connect="1" arrows="1" fold="1" page="1" pageScale="1" pageWidth="850" pageHeight="1100" math="0" shadow="0">
      <root>
        <mxCell id="0" />
        <mxCell id="1" parent="0" />
        <mxCell id="PQzGvBvh1XN56MC4Xkkl-26" value="" style="endArrow=none;dashed=1;html=1;entryX=0.5;entryY=1;entryDx=0;entryDy=0;" edge="1" parent="1" target="PQzGvBvh1XN56MC4Xkkl-13">
          <mxGeometry width="50" height="50" relative="1" as="geometry">
            <mxPoint x="230" y="2590" as="sourcePoint" />
            <mxPoint x="170" y="2310" as="targetPoint" />
          </mxGeometry>
        </mxCell>
        <mxCell id="PQzGvBvh1XN56MC4Xkkl-27" value="" style="endArrow=none;dashed=1;html=1;entryX=0.5;entryY=1;entryDx=0;entryDy=0;" edge="1" parent="1">
          <mxGeometry width="50" height="50" relative="1" as="geometry">
            <mxPoint x="320" y="2590" as="sourcePoint" />
            <mxPoint x="320" y="2230" as="targetPoint" />
          </mxGeometry>
        </mxCell>
        <mxCell id="PQzGvBvh1XN56MC4Xkkl-28" value="" style="endArrow=none;dashed=1;html=1;entryX=0.5;entryY=1;entryDx=0;entryDy=0;" edge="1" parent="1">
          <mxGeometry width="50" height="50" relative="1" as="geometry">
            <mxPoint x="489.71000000000004" y="2590" as="sourcePoint" />
            <mxPoint x="489.71000000000004" y="2230" as="targetPoint" />
          </mxGeometry>
        </mxCell>
        <mxCell id="PQzGvBvh1XN56MC4Xkkl-29" value="" style="endArrow=none;dashed=1;html=1;entryX=0.5;entryY=1;entryDx=0;entryDy=0;" edge="1" parent="1">
          <mxGeometry width="50" height="50" relative="1" as="geometry">
            <mxPoint x="629.71" y="2590" as="sourcePoint" />
            <mxPoint x="629.71" y="2230" as="targetPoint" />
          </mxGeometry>
        </mxCell>
        <mxCell id="1Rv9va5PV-6Wp0BokZfB-43" value="" style="endArrow=none;html=1;strokeColor=#000000;fontColor=#000000;entryX=0.5;entryY=1;entryDx=0;entryDy=0;dashed=1;dashPattern=1 1;" parent="1" target="1Rv9va5PV-6Wp0BokZfB-42" edge="1">
          <mxGeometry width="50" height="50" relative="1" as="geometry">
            <mxPoint x="90" y="440" as="sourcePoint" />
            <mxPoint x="370" y="240" as="targetPoint" />
          </mxGeometry>
        </mxCell>
        <mxCell id="1Rv9va5PV-6Wp0BokZfB-45" value="" style="endArrow=none;html=1;strokeColor=#000000;fontColor=#000000;entryX=0.5;entryY=1;entryDx=0;entryDy=0;dashed=1;dashPattern=1 1;" parent="1" edge="1">
          <mxGeometry width="50" height="50" relative="1" as="geometry">
            <mxPoint x="229.71" y="440" as="sourcePoint" />
            <mxPoint x="229.71" y="70" as="targetPoint" />
          </mxGeometry>
        </mxCell>
        <mxCell id="1Rv9va5PV-6Wp0BokZfB-46" value="" style="endArrow=none;html=1;strokeColor=#000000;fontColor=#000000;entryX=0.5;entryY=1;entryDx=0;entryDy=0;dashed=1;dashPattern=1 1;" parent="1" edge="1">
          <mxGeometry width="50" height="50" relative="1" as="geometry">
            <mxPoint x="489.71" y="440" as="sourcePoint" />
            <mxPoint x="489.71" y="70" as="targetPoint" />
          </mxGeometry>
        </mxCell>
        <mxCell id="1Rv9va5PV-6Wp0BokZfB-47" value="" style="endArrow=none;html=1;strokeColor=#000000;fontColor=#000000;entryX=0.5;entryY=1;entryDx=0;entryDy=0;dashed=1;dashPattern=1 1;" parent="1" edge="1">
          <mxGeometry width="50" height="50" relative="1" as="geometry">
            <mxPoint x="629.71" y="440" as="sourcePoint" />
            <mxPoint x="629.71" y="70" as="targetPoint" />
          </mxGeometry>
        </mxCell>
        <mxCell id="1Rv9va5PV-6Wp0BokZfB-1" value="b" style="rounded=0;whiteSpace=wrap;html=1;verticalAlign=top;" parent="1" vertex="1">
          <mxGeometry x="220" y="120" width="20" height="170" as="geometry" />
        </mxCell>
        <mxCell id="1Rv9va5PV-6Wp0BokZfB-2" value="" style="endArrow=none;html=1;strokeColor=#B3B3B3;strokeWidth=3;" parent="1" edge="1">
          <mxGeometry width="50" height="50" relative="1" as="geometry">
            <mxPoint x="360" y="410" as="sourcePoint" />
            <mxPoint x="360" y="80" as="targetPoint" />
          </mxGeometry>
        </mxCell>
        <mxCell id="1Rv9va5PV-6Wp0BokZfB-6" style="rounded=0;orthogonalLoop=1;jettySize=auto;html=1;exitX=0;exitY=0;exitDx=0;exitDy=0;entryX=1;entryY=0;entryDx=0;entryDy=0;" parent="1" source="1Rv9va5PV-6Wp0BokZfB-3" target="1Rv9va5PV-6Wp0BokZfB-5" edge="1">
          <mxGeometry relative="1" as="geometry">
            <mxPoint x="250" y="140" as="targetPoint" />
          </mxGeometry>
        </mxCell>
        <mxCell id="1Rv9va5PV-6Wp0BokZfB-3" value="a" style="rounded=0;whiteSpace=wrap;html=1;verticalAlign=top;" parent="1" vertex="1">
          <mxGeometry x="480" y="120" width="20" height="220" as="geometry" />
        </mxCell>
        <mxCell id="1Rv9va5PV-6Wp0BokZfB-5" value="A" style="rounded=0;whiteSpace=wrap;html=1;fillColor=#B3B3B3;strokeColor=#666666;fontColor=#333333;verticalAlign=top;" parent="1" vertex="1">
          <mxGeometry x="80" y="140" width="20" height="20" as="geometry" />
        </mxCell>
        <mxCell id="1Rv9va5PV-6Wp0BokZfB-7" value="B" style="rounded=0;whiteSpace=wrap;html=1;fillColor=#B3B3B3;strokeColor=#666666;fontColor=#333333;verticalAlign=top;" parent="1" vertex="1">
          <mxGeometry x="460" y="140" width="20" height="150" as="geometry" />
        </mxCell>
        <mxCell id="1Rv9va5PV-6Wp0BokZfB-12" value="a" style="rounded=0;whiteSpace=wrap;html=1;verticalAlign=top;" parent="1" vertex="1">
          <mxGeometry x="440" y="160" width="20" height="90" as="geometry" />
        </mxCell>
        <mxCell id="1Rv9va5PV-6Wp0BokZfB-20" value="A" style="rounded=0;whiteSpace=wrap;html=1;fillColor=#B3B3B3;strokeColor=#666666;fontColor=#333333;verticalAlign=top;" parent="1" vertex="1">
          <mxGeometry x="240" y="160" width="20" height="90" as="geometry" />
        </mxCell>
        <mxCell id="1Rv9va5PV-6Wp0BokZfB-21" style="edgeStyle=none;rounded=0;orthogonalLoop=1;jettySize=auto;html=1;exitX=1;exitY=1;exitDx=0;exitDy=0;dashed=1;entryX=0;entryY=1;entryDx=0;entryDy=0;" parent="1" edge="1" target="1Rv9va5PV-6Wp0BokZfB-12" source="1Rv9va5PV-6Wp0BokZfB-20">
          <mxGeometry relative="1" as="geometry">
            <mxPoint x="470" y="270" as="targetPoint" />
            <mxPoint x="220" y="260" as="sourcePoint" />
          </mxGeometry>
        </mxCell>
        <mxCell id="1Rv9va5PV-6Wp0BokZfB-30" value="" style="rounded=0;whiteSpace=wrap;html=1;verticalAlign=top;dashed=1;" parent="1" vertex="1">
          <mxGeometry x="80" y="160" width="20" height="130" as="geometry" />
        </mxCell>
        <mxCell id="1Rv9va5PV-6Wp0BokZfB-34" value="" style="endArrow=classic;html=1;strokeColor=#000000;fontColor=#000000;exitX=0;exitY=0;exitDx=0;exitDy=0;entryX=1;entryY=0;entryDx=0;entryDy=0;" parent="1" source="1Rv9va5PV-6Wp0BokZfB-12" edge="1" target="1Rv9va5PV-6Wp0BokZfB-20">
          <mxGeometry width="50" height="50" relative="1" as="geometry">
            <mxPoint x="490" y="250" as="sourcePoint" />
            <mxPoint x="250" y="170" as="targetPoint" />
          </mxGeometry>
        </mxCell>
        <mxCell id="1Rv9va5PV-6Wp0BokZfB-35" style="edgeStyle=none;rounded=0;orthogonalLoop=1;jettySize=auto;html=1;exitX=0;exitY=1;exitDx=0;exitDy=0;dashed=1;entryX=1;entryY=1;entryDx=0;entryDy=0;" parent="1" source="1Rv9va5PV-6Wp0BokZfB-7" edge="1" target="1Rv9va5PV-6Wp0BokZfB-1">
          <mxGeometry relative="1" as="geometry">
            <mxPoint x="250" y="300" as="targetPoint" />
            <mxPoint x="230" y="270" as="sourcePoint" />
          </mxGeometry>
        </mxCell>
        <mxCell id="1Rv9va5PV-6Wp0BokZfB-37" value="" style="rounded=0;whiteSpace=wrap;html=1;fillColor=#B3B3B3;strokeColor=#666666;fontColor=#333333;verticalAlign=top;" parent="1" vertex="1">
          <mxGeometry x="80" y="290" width="20" height="50" as="geometry" />
        </mxCell>
        <mxCell id="1Rv9va5PV-6Wp0BokZfB-38" value="" style="endArrow=classic;html=1;strokeColor=#000000;fontColor=#000000;exitX=1;exitY=1;exitDx=0;exitDy=0;entryX=0;entryY=1;entryDx=0;entryDy=0;dashed=1;" parent="1" source="1Rv9va5PV-6Wp0BokZfB-37" edge="1" target="1Rv9va5PV-6Wp0BokZfB-3">
          <mxGeometry width="50" height="50" relative="1" as="geometry">
            <mxPoint x="320" y="290" as="sourcePoint" />
            <mxPoint x="470" y="390" as="targetPoint" />
          </mxGeometry>
        </mxCell>
        <mxCell id="1Rv9va5PV-6Wp0BokZfB-39" value="NET&lt;br&gt;user thread" style="rounded=1;whiteSpace=wrap;html=1;fillColor=#ffffff;fontColor=#000000;" parent="1" vertex="1">
          <mxGeometry x="190" y="40" width="80" height="30" as="geometry" />
        </mxCell>
        <mxCell id="1Rv9va5PV-6Wp0BokZfB-40" value="APP&lt;br&gt;user thread" style="rounded=1;whiteSpace=wrap;html=1;fillColor=#ffffff;fontColor=#000000;" parent="1" vertex="1">
          <mxGeometry x="450" y="40" width="80" height="30" as="geometry" />
        </mxCell>
        <mxCell id="1Rv9va5PV-6Wp0BokZfB-41" value="APP&lt;br&gt;ep thread" style="rounded=1;whiteSpace=wrap;html=1;fillColor=#ffffff;fontColor=#000000;" parent="1" vertex="1">
          <mxGeometry x="590" y="40" width="80" height="30" as="geometry" />
        </mxCell>
        <mxCell id="1Rv9va5PV-6Wp0BokZfB-42" value="NET&lt;br&gt;ep thread" style="rounded=1;whiteSpace=wrap;html=1;fillColor=#ffffff;fontColor=#000000;" parent="1" vertex="1">
          <mxGeometry x="50" y="40" width="80" height="30" as="geometry" />
        </mxCell>
        <mxCell id="1Rv9va5PV-6Wp0BokZfB-8" style="edgeStyle=none;rounded=0;orthogonalLoop=1;jettySize=auto;html=1;exitX=1;exitY=0;exitDx=0;exitDy=0;entryX=0;entryY=0;entryDx=0;entryDy=0;" parent="1" source="1Rv9va5PV-6Wp0BokZfB-1" target="1Rv9va5PV-6Wp0BokZfB-7" edge="1">
          <mxGeometry relative="1" as="geometry">
            <mxPoint x="470" y="140" as="targetPoint" />
          </mxGeometry>
        </mxCell>
        <mxCell id="1Rv9va5PV-6Wp0BokZfB-54" value="" style="endArrow=none;html=1;strokeColor=#000000;fontColor=#000000;entryX=0.5;entryY=1;entryDx=0;entryDy=0;dashed=1;dashPattern=1 1;" parent="1" target="1Rv9va5PV-6Wp0BokZfB-75" edge="1">
          <mxGeometry width="50" height="50" relative="1" as="geometry">
            <mxPoint x="90" y="920" as="sourcePoint" />
            <mxPoint x="370" y="720" as="targetPoint" />
          </mxGeometry>
        </mxCell>
        <mxCell id="1Rv9va5PV-6Wp0BokZfB-55" value="" style="endArrow=none;html=1;strokeColor=#000000;fontColor=#000000;entryX=0.5;entryY=1;entryDx=0;entryDy=0;dashed=1;dashPattern=1 1;" parent="1" edge="1">
          <mxGeometry width="50" height="50" relative="1" as="geometry">
            <mxPoint x="229.9943137254902" y="1050" as="sourcePoint" />
            <mxPoint x="229.71000000000004" y="550" as="targetPoint" />
          </mxGeometry>
        </mxCell>
        <mxCell id="1Rv9va5PV-6Wp0BokZfB-56" value="" style="endArrow=none;html=1;strokeColor=#000000;fontColor=#000000;entryX=0.5;entryY=1;entryDx=0;entryDy=0;dashed=1;dashPattern=1 1;" parent="1" edge="1">
          <mxGeometry width="50" height="50" relative="1" as="geometry">
            <mxPoint x="489.94821428571436" y="780" as="sourcePoint" />
            <mxPoint x="489.71000000000004" y="550" as="targetPoint" />
          </mxGeometry>
        </mxCell>
        <mxCell id="1Rv9va5PV-6Wp0BokZfB-57" value="" style="endArrow=none;html=1;strokeColor=#000000;fontColor=#000000;entryX=0.5;entryY=1;entryDx=0;entryDy=0;dashed=1;dashPattern=1 1;" parent="1" edge="1">
          <mxGeometry width="50" height="50" relative="1" as="geometry">
            <mxPoint x="629.71" y="920" as="sourcePoint" />
            <mxPoint x="629.71" y="550" as="targetPoint" />
          </mxGeometry>
        </mxCell>
        <mxCell id="1Rv9va5PV-6Wp0BokZfB-58" value="b" style="rounded=0;whiteSpace=wrap;html=1;verticalAlign=top;" parent="1" vertex="1">
          <mxGeometry x="220" y="600" width="20" height="190" as="geometry" />
        </mxCell>
        <mxCell id="1Rv9va5PV-6Wp0BokZfB-59" value="" style="endArrow=none;html=1;strokeColor=#B3B3B3;strokeWidth=3;" parent="1" edge="1">
          <mxGeometry width="50" height="50" relative="1" as="geometry">
            <mxPoint x="360" y="890" as="sourcePoint" />
            <mxPoint x="360" y="560" as="targetPoint" />
          </mxGeometry>
        </mxCell>
        <mxCell id="1Rv9va5PV-6Wp0BokZfB-60" style="rounded=0;orthogonalLoop=1;jettySize=auto;html=1;exitX=0;exitY=0;exitDx=0;exitDy=0;entryX=1;entryY=0;entryDx=0;entryDy=0;" parent="1" source="1Rv9va5PV-6Wp0BokZfB-61" target="1Rv9va5PV-6Wp0BokZfB-62" edge="1">
          <mxGeometry relative="1" as="geometry">
            <mxPoint x="250" y="620" as="targetPoint" />
          </mxGeometry>
        </mxCell>
        <mxCell id="1Rv9va5PV-6Wp0BokZfB-61" value="a" style="rounded=0;whiteSpace=wrap;html=1;verticalAlign=top;" parent="1" vertex="1">
          <mxGeometry x="480" y="600" width="20" height="160" as="geometry" />
        </mxCell>
        <mxCell id="1Rv9va5PV-6Wp0BokZfB-62" value="A" style="rounded=0;whiteSpace=wrap;html=1;fillColor=#B3B3B3;strokeColor=#666666;fontColor=#333333;verticalAlign=top;" parent="1" vertex="1">
          <mxGeometry x="80" y="620" width="20" height="140" as="geometry" />
        </mxCell>
        <mxCell id="1Rv9va5PV-6Wp0BokZfB-63" value="B" style="rounded=0;whiteSpace=wrap;html=1;fillColor=#B3B3B3;strokeColor=#666666;fontColor=#333333;verticalAlign=top;" parent="1" vertex="1">
          <mxGeometry x="620" y="620" width="20" height="170" as="geometry" />
        </mxCell>
        <mxCell id="1Rv9va5PV-6Wp0BokZfB-64" value="c" style="rounded=0;whiteSpace=wrap;html=1;verticalAlign=top;" parent="1" vertex="1">
          <mxGeometry x="600" y="640" width="20" height="100" as="geometry" />
        </mxCell>
        <mxCell id="1Rv9va5PV-6Wp0BokZfB-65" value="C" style="rounded=0;whiteSpace=wrap;html=1;fillColor=#B3B3B3;strokeColor=#666666;fontColor=#333333;verticalAlign=top;" parent="1" vertex="1">
          <mxGeometry x="240" y="640" width="20" height="100" as="geometry" />
        </mxCell>
        <mxCell id="1Rv9va5PV-6Wp0BokZfB-66" style="edgeStyle=none;rounded=0;orthogonalLoop=1;jettySize=auto;html=1;exitX=1;exitY=1;exitDx=0;exitDy=0;dashed=1;entryX=0;entryY=1;entryDx=0;entryDy=0;" parent="1" source="1Rv9va5PV-6Wp0BokZfB-65" target="1Rv9va5PV-6Wp0BokZfB-64" edge="1">
          <mxGeometry relative="1" as="geometry">
            <mxPoint x="620" y="750" as="targetPoint" />
            <mxPoint x="220" y="740" as="sourcePoint" />
          </mxGeometry>
        </mxCell>
        <mxCell id="1Rv9va5PV-6Wp0BokZfB-68" value="" style="endArrow=classic;html=1;strokeColor=#000000;fontColor=#000000;exitX=0;exitY=0;exitDx=0;exitDy=0;entryX=1;entryY=0;entryDx=0;entryDy=0;" parent="1" source="1Rv9va5PV-6Wp0BokZfB-64" target="1Rv9va5PV-6Wp0BokZfB-65" edge="1">
          <mxGeometry width="50" height="50" relative="1" as="geometry">
            <mxPoint x="490" y="730" as="sourcePoint" />
            <mxPoint x="260" y="650" as="targetPoint" />
          </mxGeometry>
        </mxCell>
        <mxCell id="1Rv9va5PV-6Wp0BokZfB-69" style="edgeStyle=none;rounded=0;orthogonalLoop=1;jettySize=auto;html=1;dashed=1;entryX=1;entryY=1;entryDx=0;entryDy=0;exitX=0;exitY=1;exitDx=0;exitDy=0;" parent="1" source="1Rv9va5PV-6Wp0BokZfB-63" target="1Rv9va5PV-6Wp0BokZfB-58" edge="1">
          <mxGeometry relative="1" as="geometry">
            <mxPoint x="250" y="800" as="targetPoint" />
            <mxPoint x="620" y="790" as="sourcePoint" />
          </mxGeometry>
        </mxCell>
        <mxCell id="1Rv9va5PV-6Wp0BokZfB-71" value="" style="endArrow=classic;html=1;strokeColor=#000000;fontColor=#000000;exitX=1;exitY=1;exitDx=0;exitDy=0;entryX=0;entryY=1;entryDx=0;entryDy=0;dashed=1;" parent="1" target="1Rv9va5PV-6Wp0BokZfB-61" edge="1">
          <mxGeometry width="50" height="50" relative="1" as="geometry">
            <mxPoint x="100" y="760" as="sourcePoint" />
            <mxPoint x="470" y="770" as="targetPoint" />
          </mxGeometry>
        </mxCell>
        <mxCell id="1Rv9va5PV-6Wp0BokZfB-72" value="USER&lt;br&gt;thread" style="rounded=1;whiteSpace=wrap;html=1;fillColor=#ffffff;fontColor=#000000;" parent="1" vertex="1">
          <mxGeometry x="190" y="520" width="80" height="30" as="geometry" />
        </mxCell>
        <mxCell id="1Rv9va5PV-6Wp0BokZfB-73" value="USER&lt;br&gt;thread" style="rounded=1;whiteSpace=wrap;html=1;fillColor=#ffffff;fontColor=#000000;" parent="1" vertex="1">
          <mxGeometry x="450" y="520" width="80" height="30" as="geometry" />
        </mxCell>
        <mxCell id="1Rv9va5PV-6Wp0BokZfB-74" value="EP&lt;br&gt;thread" style="rounded=1;whiteSpace=wrap;html=1;fillColor=#ffffff;fontColor=#000000;" parent="1" vertex="1">
          <mxGeometry x="590" y="520" width="80" height="30" as="geometry" />
        </mxCell>
        <mxCell id="1Rv9va5PV-6Wp0BokZfB-75" value="EP&lt;br&gt;thread" style="rounded=1;whiteSpace=wrap;html=1;fillColor=#ffffff;fontColor=#000000;" parent="1" vertex="1">
          <mxGeometry x="50" y="520" width="80" height="30" as="geometry" />
        </mxCell>
        <mxCell id="1Rv9va5PV-6Wp0BokZfB-76" style="edgeStyle=none;rounded=0;orthogonalLoop=1;jettySize=auto;html=1;exitX=1;exitY=0;exitDx=0;exitDy=0;entryX=0;entryY=0;entryDx=0;entryDy=0;" parent="1" source="1Rv9va5PV-6Wp0BokZfB-58" target="1Rv9va5PV-6Wp0BokZfB-63" edge="1">
          <mxGeometry relative="1" as="geometry">
            <mxPoint x="470" y="620" as="targetPoint" />
          </mxGeometry>
        </mxCell>
        <mxCell id="1Rv9va5PV-6Wp0BokZfB-81" value="" style="endArrow=none;html=1;strokeColor=#000000;fontColor=#000000;entryX=0.5;entryY=1;entryDx=0;entryDy=0;dashed=1;dashPattern=1 1;" parent="1" target="1Rv9va5PV-6Wp0BokZfB-61" edge="1">
          <mxGeometry width="50" height="50" relative="1" as="geometry">
            <mxPoint x="489.71000000000004" y="920" as="sourcePoint" />
            <mxPoint x="490" y="880" as="targetPoint" />
          </mxGeometry>
        </mxCell>
        <mxCell id="G7WEoSztosAkv3LRzKmX-35" value="e" style="rounded=0;whiteSpace=wrap;html=1;verticalAlign=top;" parent="1" vertex="1">
          <mxGeometry x="220" y="880" width="20" height="20" as="geometry" />
        </mxCell>
        <mxCell id="G7WEoSztosAkv3LRzKmX-36" style="rounded=0;orthogonalLoop=1;jettySize=auto;html=1;exitX=0;exitY=0;exitDx=0;exitDy=0;entryX=1;entryY=0;entryDx=0;entryDy=0;" parent="1" source="G7WEoSztosAkv3LRzKmX-37" target="G7WEoSztosAkv3LRzKmX-38" edge="1">
          <mxGeometry relative="1" as="geometry">
            <mxPoint x="250" y="880" as="targetPoint" />
          </mxGeometry>
        </mxCell>
        <mxCell id="G7WEoSztosAkv3LRzKmX-37" value="a" style="rounded=0;whiteSpace=wrap;html=1;verticalAlign=top;" parent="1" vertex="1">
          <mxGeometry x="480" y="920" width="20" height="50" as="geometry" />
        </mxCell>
        <mxCell id="G7WEoSztosAkv3LRzKmX-38" value="A" style="rounded=0;whiteSpace=wrap;html=1;fillColor=#B3B3B3;strokeColor=#666666;fontColor=#333333;verticalAlign=top;" parent="1" vertex="1">
          <mxGeometry x="80" y="920" width="20" height="50" as="geometry" />
        </mxCell>
        <mxCell id="G7WEoSztosAkv3LRzKmX-39" value="E" style="rounded=0;whiteSpace=wrap;html=1;fillColor=#B3B3B3;strokeColor=#666666;fontColor=#333333;verticalAlign=top;" parent="1" vertex="1">
          <mxGeometry x="620" y="880" width="20" height="230" as="geometry" />
        </mxCell>
        <mxCell id="G7WEoSztosAkv3LRzKmX-40" value="" style="rounded=0;whiteSpace=wrap;html=1;verticalAlign=top;" parent="1" vertex="1">
          <mxGeometry x="600" y="990" width="20" height="100" as="geometry" />
        </mxCell>
        <mxCell id="G7WEoSztosAkv3LRzKmX-41" value="A" style="rounded=0;whiteSpace=wrap;html=1;fillColor=#B3B3B3;strokeColor=#666666;fontColor=#333333;verticalAlign=top;" parent="1" vertex="1">
          <mxGeometry x="80" y="990" width="20" height="100" as="geometry" />
        </mxCell>
        <mxCell id="G7WEoSztosAkv3LRzKmX-42" style="edgeStyle=none;rounded=0;orthogonalLoop=1;jettySize=auto;html=1;exitX=1;exitY=1;exitDx=0;exitDy=0;dashed=1;entryX=0;entryY=1;entryDx=0;entryDy=0;" parent="1" source="G7WEoSztosAkv3LRzKmX-41" target="G7WEoSztosAkv3LRzKmX-40" edge="1">
          <mxGeometry relative="1" as="geometry">
            <mxPoint x="620" y="1010" as="targetPoint" />
            <mxPoint x="220" y="1000" as="sourcePoint" />
          </mxGeometry>
        </mxCell>
        <mxCell id="G7WEoSztosAkv3LRzKmX-43" value="" style="endArrow=classic;html=1;strokeColor=#000000;fontColor=#000000;exitX=0;exitY=0;exitDx=0;exitDy=0;entryX=1;entryY=0;entryDx=0;entryDy=0;" parent="1" source="G7WEoSztosAkv3LRzKmX-40" target="G7WEoSztosAkv3LRzKmX-41" edge="1">
          <mxGeometry width="50" height="50" relative="1" as="geometry">
            <mxPoint x="490" y="990" as="sourcePoint" />
            <mxPoint x="260" y="910" as="targetPoint" />
          </mxGeometry>
        </mxCell>
        <mxCell id="G7WEoSztosAkv3LRzKmX-44" style="edgeStyle=none;rounded=0;orthogonalLoop=1;jettySize=auto;html=1;dashed=1;exitX=0;exitY=1;exitDx=0;exitDy=0;" parent="1" source="G7WEoSztosAkv3LRzKmX-39" edge="1">
          <mxGeometry relative="1" as="geometry">
            <mxPoint x="310" y="1110" as="targetPoint" />
            <mxPoint x="620" y="1050" as="sourcePoint" />
          </mxGeometry>
        </mxCell>
        <mxCell id="G7WEoSztosAkv3LRzKmX-45" value="" style="endArrow=classic;html=1;strokeColor=#000000;fontColor=#000000;exitX=1;exitY=1;exitDx=0;exitDy=0;entryX=0;entryY=1;entryDx=0;entryDy=0;dashed=1;" parent="1" source="G7WEoSztosAkv3LRzKmX-38" target="G7WEoSztosAkv3LRzKmX-37" edge="1">
          <mxGeometry width="50" height="50" relative="1" as="geometry">
            <mxPoint x="100" y="1020" as="sourcePoint" />
            <mxPoint x="470" y="1030" as="targetPoint" />
          </mxGeometry>
        </mxCell>
        <mxCell id="G7WEoSztosAkv3LRzKmX-46" style="edgeStyle=none;rounded=0;orthogonalLoop=1;jettySize=auto;html=1;exitX=1;exitY=0;exitDx=0;exitDy=0;entryX=0;entryY=0;entryDx=0;entryDy=0;" parent="1" source="G7WEoSztosAkv3LRzKmX-35" target="G7WEoSztosAkv3LRzKmX-39" edge="1">
          <mxGeometry relative="1" as="geometry">
            <mxPoint x="470" y="880" as="targetPoint" />
          </mxGeometry>
        </mxCell>
        <mxCell id="G7WEoSztosAkv3LRzKmX-47" value="a" style="rounded=0;whiteSpace=wrap;html=1;verticalAlign=top;dashed=1;" parent="1" vertex="1">
          <mxGeometry x="600" y="930" width="20" height="60" as="geometry" />
        </mxCell>
        <mxCell id="G7WEoSztosAkv3LRzKmX-48" value="" style="ellipse;whiteSpace=wrap;html=1;fillColor=#66CC00;" parent="1" vertex="1">
          <mxGeometry x="485" y="920" width="10" height="10" as="geometry" />
        </mxCell>
        <mxCell id="G7WEoSztosAkv3LRzKmX-49" value="" style="ellipse;whiteSpace=wrap;html=1;dashed=1;fillColor=#FF3333;" parent="1" vertex="1">
          <mxGeometry x="605" y="930" width="10" height="10" as="geometry" />
        </mxCell>
        <mxCell id="G7WEoSztosAkv3LRzKmX-51" value="" style="ellipse;whiteSpace=wrap;html=1;fillColor=#66CC00;" parent="1" vertex="1">
          <mxGeometry x="225" y="880" width="10" height="10" as="geometry" />
        </mxCell>
        <mxCell id="G7WEoSztosAkv3LRzKmX-52" value="" style="ellipse;whiteSpace=wrap;html=1;fillColor=#FFFF00;" parent="1" vertex="1">
          <mxGeometry x="485" y="960" width="10" height="10" as="geometry" />
        </mxCell>
        <mxCell id="G7WEoSztosAkv3LRzKmX-53" value="" style="ellipse;whiteSpace=wrap;html=1;fillColor=#FFFF00;" parent="1" vertex="1">
          <mxGeometry x="300" y="1110" width="10" height="10" as="geometry" />
        </mxCell>
        <mxCell id="G7WEoSztosAkv3LRzKmX-54" value="" style="ellipse;whiteSpace=wrap;html=1;fillColor=#FFFF00;" parent="1" vertex="1">
          <mxGeometry x="605" y="1080" width="10" height="10" as="geometry" />
        </mxCell>
        <mxCell id="G7WEoSztosAkv3LRzKmX-57" value="" style="ellipse;whiteSpace=wrap;html=1;fillColor=#66CC00;" parent="1" vertex="1">
          <mxGeometry x="605" y="990" width="10" height="10" as="geometry" />
        </mxCell>
        <mxCell id="G7WEoSztosAkv3LRzKmX-65" style="edgeStyle=none;rounded=0;orthogonalLoop=1;jettySize=auto;html=1;exitX=1;exitY=0;exitDx=0;exitDy=0;entryX=0;entryY=0;entryDx=0;entryDy=0;" parent="1" source="G7WEoSztosAkv3LRzKmX-59" target="G7WEoSztosAkv3LRzKmX-64" edge="1">
          <mxGeometry relative="1" as="geometry" />
        </mxCell>
        <mxCell id="G7WEoSztosAkv3LRzKmX-59" value="" style="rounded=0;whiteSpace=wrap;html=1;verticalAlign=top;" parent="1" vertex="1">
          <mxGeometry x="220" y="1120" width="20" height="20" as="geometry" />
        </mxCell>
        <mxCell id="G7WEoSztosAkv3LRzKmX-60" value="&lt;br&gt;e" style="rounded=0;whiteSpace=wrap;html=1;verticalAlign=top;dashed=1;" parent="1" vertex="1">
          <mxGeometry x="220" y="950" width="20" height="170" as="geometry" />
        </mxCell>
        <mxCell id="G7WEoSztosAkv3LRzKmX-61" value="" style="ellipse;whiteSpace=wrap;html=1;dashed=1;fillColor=#FF3333;" parent="1" vertex="1">
          <mxGeometry x="225" y="950" width="10" height="10" as="geometry" />
        </mxCell>
        <mxCell id="G7WEoSztosAkv3LRzKmX-63" value="" style="ellipse;whiteSpace=wrap;html=1;fillColor=#66CC00;" parent="1" vertex="1">
          <mxGeometry x="225" y="1120" width="10" height="10" as="geometry" />
        </mxCell>
        <mxCell id="G7WEoSztosAkv3LRzKmX-66" style="edgeStyle=none;rounded=0;orthogonalLoop=1;jettySize=auto;html=1;exitX=0;exitY=1;exitDx=0;exitDy=0;dashed=1;" parent="1" source="G7WEoSztosAkv3LRzKmX-64" edge="1">
          <mxGeometry relative="1" as="geometry">
            <mxPoint x="310" y="1190" as="targetPoint" />
          </mxGeometry>
        </mxCell>
        <mxCell id="G7WEoSztosAkv3LRzKmX-64" value="E" style="rounded=0;whiteSpace=wrap;html=1;fillColor=#B3B3B3;strokeColor=#666666;fontColor=#333333;verticalAlign=top;" parent="1" vertex="1">
          <mxGeometry x="620" y="1120" width="20" height="70" as="geometry" />
        </mxCell>
        <mxCell id="G7WEoSztosAkv3LRzKmX-67" value="" style="ellipse;whiteSpace=wrap;html=1;fillColor=#FFFF00;" parent="1" vertex="1">
          <mxGeometry x="300" y="1190" width="10" height="10" as="geometry" />
        </mxCell>
        <mxCell id="G7WEoSztosAkv3LRzKmX-68" value="" style="ellipse;whiteSpace=wrap;html=1;fillColor=#66CC00;" parent="1" vertex="1">
          <mxGeometry x="80" y="1310" width="10" height="10" as="geometry" />
        </mxCell>
        <mxCell id="G7WEoSztosAkv3LRzKmX-69" value="" style="ellipse;whiteSpace=wrap;html=1;fillColor=#FFFF00;" parent="1" vertex="1">
          <mxGeometry x="80" y="1280" width="10" height="10" as="geometry" />
        </mxCell>
        <mxCell id="G7WEoSztosAkv3LRzKmX-70" value="" style="ellipse;whiteSpace=wrap;html=1;dashed=1;fillColor=#FF3333;" parent="1" vertex="1">
          <mxGeometry x="80" y="1250" width="10" height="10" as="geometry" />
        </mxCell>
        <mxCell id="G7WEoSztosAkv3LRzKmX-72" value="Semaphore is already taken - waiting" style="text;html=1;strokeColor=none;fillColor=none;align=left;verticalAlign=middle;whiteSpace=wrap;rounded=0;" parent="1" vertex="1">
          <mxGeometry x="100" y="1240" width="220" height="30" as="geometry" />
        </mxCell>
        <mxCell id="G7WEoSztosAkv3LRzKmX-73" value="Semaphore is given back at this point" style="text;html=1;strokeColor=none;fillColor=none;align=left;verticalAlign=middle;whiteSpace=wrap;rounded=0;" parent="1" vertex="1">
          <mxGeometry x="100" y="1270" width="220" height="30" as="geometry" />
        </mxCell>
        <mxCell id="G7WEoSztosAkv3LRzKmX-74" value="Semaphore is available - taking it" style="text;html=1;strokeColor=none;fillColor=none;align=left;verticalAlign=middle;whiteSpace=wrap;rounded=0;" parent="1" vertex="1">
          <mxGeometry x="100" y="1300" width="220" height="30" as="geometry" />
        </mxCell>
        <mxCell id="G7WEoSztosAkv3LRzKmX-94" value="" style="endArrow=none;html=1;strokeColor=#000000;fontColor=#000000;entryX=0.5;entryY=1;entryDx=0;entryDy=0;dashed=1;dashPattern=1 1;" parent="1" target="G7WEoSztosAkv3LRzKmX-115" edge="1">
          <mxGeometry width="50" height="50" relative="1" as="geometry">
            <mxPoint x="90" y="1790" as="sourcePoint" />
            <mxPoint x="370" y="1590" as="targetPoint" />
          </mxGeometry>
        </mxCell>
        <mxCell id="G7WEoSztosAkv3LRzKmX-95" value="" style="endArrow=none;html=1;strokeColor=#000000;fontColor=#000000;entryX=0.5;entryY=1;entryDx=0;entryDy=0;dashed=1;dashPattern=1 1;" parent="1" edge="1">
          <mxGeometry width="50" height="50" relative="1" as="geometry">
            <mxPoint x="229.71000000000004" y="1790" as="sourcePoint" />
            <mxPoint x="229.71000000000004" y="1420" as="targetPoint" />
          </mxGeometry>
        </mxCell>
        <mxCell id="G7WEoSztosAkv3LRzKmX-96" value="" style="endArrow=none;html=1;strokeColor=#000000;fontColor=#000000;entryX=0.5;entryY=1;entryDx=0;entryDy=0;dashed=1;dashPattern=1 1;" parent="1" edge="1">
          <mxGeometry width="50" height="50" relative="1" as="geometry">
            <mxPoint x="489.71000000000026" y="1790" as="sourcePoint" />
            <mxPoint x="489.71000000000026" y="1420" as="targetPoint" />
          </mxGeometry>
        </mxCell>
        <mxCell id="G7WEoSztosAkv3LRzKmX-97" value="" style="endArrow=none;html=1;strokeColor=#000000;fontColor=#000000;entryX=0.5;entryY=1;entryDx=0;entryDy=0;dashed=1;dashPattern=1 1;" parent="1" edge="1">
          <mxGeometry width="50" height="50" relative="1" as="geometry">
            <mxPoint x="629.7100000000003" y="1790" as="sourcePoint" />
            <mxPoint x="629.7100000000003" y="1420" as="targetPoint" />
          </mxGeometry>
        </mxCell>
        <mxCell id="G7WEoSztosAkv3LRzKmX-98" value="b" style="rounded=0;whiteSpace=wrap;html=1;verticalAlign=top;" parent="1" vertex="1">
          <mxGeometry x="220" y="1470" width="20" height="200" as="geometry" />
        </mxCell>
        <mxCell id="G7WEoSztosAkv3LRzKmX-99" value="" style="endArrow=none;html=1;strokeColor=#B3B3B3;strokeWidth=3;" parent="1" edge="1">
          <mxGeometry width="50" height="50" relative="1" as="geometry">
            <mxPoint x="360" y="1760" as="sourcePoint" />
            <mxPoint x="360" y="1430" as="targetPoint" />
          </mxGeometry>
        </mxCell>
        <mxCell id="G7WEoSztosAkv3LRzKmX-100" style="rounded=0;orthogonalLoop=1;jettySize=auto;html=1;exitX=0;exitY=0;exitDx=0;exitDy=0;entryX=1;entryY=0;entryDx=0;entryDy=0;" parent="1" source="G7WEoSztosAkv3LRzKmX-101" target="G7WEoSztosAkv3LRzKmX-102" edge="1">
          <mxGeometry relative="1" as="geometry">
            <mxPoint x="250" y="1490" as="targetPoint" />
          </mxGeometry>
        </mxCell>
        <mxCell id="G7WEoSztosAkv3LRzKmX-101" value="a" style="rounded=0;whiteSpace=wrap;html=1;verticalAlign=top;" parent="1" vertex="1">
          <mxGeometry x="480" y="1470" width="20" height="200" as="geometry" />
        </mxCell>
        <mxCell id="G7WEoSztosAkv3LRzKmX-102" value="A" style="rounded=0;whiteSpace=wrap;html=1;fillColor=#B3B3B3;strokeColor=#666666;fontColor=#333333;verticalAlign=top;" parent="1" vertex="1">
          <mxGeometry x="240" y="1490" width="20" height="80" as="geometry" />
        </mxCell>
        <mxCell id="G7WEoSztosAkv3LRzKmX-121" style="edgeStyle=none;rounded=0;orthogonalLoop=1;jettySize=auto;html=1;exitX=0;exitY=1;exitDx=0;exitDy=0;" parent="1" source="G7WEoSztosAkv3LRzKmX-103" edge="1">
          <mxGeometry relative="1" as="geometry">
            <mxPoint x="240" y="1670.2857142857142" as="targetPoint" />
          </mxGeometry>
        </mxCell>
        <mxCell id="G7WEoSztosAkv3LRzKmX-103" value="B" style="rounded=0;whiteSpace=wrap;html=1;fillColor=#B3B3B3;strokeColor=#666666;fontColor=#333333;verticalAlign=top;" parent="1" vertex="1">
          <mxGeometry x="460" y="1490" width="20" height="180" as="geometry" />
        </mxCell>
        <mxCell id="G7WEoSztosAkv3LRzKmX-117" style="edgeStyle=none;rounded=0;orthogonalLoop=1;jettySize=auto;html=1;exitX=0;exitY=0;exitDx=0;exitDy=0;" parent="1" source="G7WEoSztosAkv3LRzKmX-104" edge="1">
          <mxGeometry relative="1" as="geometry">
            <mxPoint x="260" y="1580" as="targetPoint" />
          </mxGeometry>
        </mxCell>
        <mxCell id="G7WEoSztosAkv3LRzKmX-104" value="c" style="rounded=0;whiteSpace=wrap;html=1;verticalAlign=top;" parent="1" vertex="1">
          <mxGeometry x="440" y="1510" width="20" height="150" as="geometry" />
        </mxCell>
        <mxCell id="G7WEoSztosAkv3LRzKmX-112" value="NET&lt;br&gt;user thread" style="rounded=1;whiteSpace=wrap;html=1;fillColor=#ffffff;fontColor=#000000;" parent="1" vertex="1">
          <mxGeometry x="190" y="1390" width="80" height="30" as="geometry" />
        </mxCell>
        <mxCell id="G7WEoSztosAkv3LRzKmX-113" value="APP&lt;br&gt;user thread" style="rounded=1;whiteSpace=wrap;html=1;fillColor=#ffffff;fontColor=#000000;" parent="1" vertex="1">
          <mxGeometry x="450" y="1390" width="80" height="30" as="geometry" />
        </mxCell>
        <mxCell id="G7WEoSztosAkv3LRzKmX-114" value="APP&lt;br&gt;ep thread" style="rounded=1;whiteSpace=wrap;html=1;fillColor=#ffffff;fontColor=#000000;" parent="1" vertex="1">
          <mxGeometry x="590" y="1390" width="80" height="30" as="geometry" />
        </mxCell>
        <mxCell id="G7WEoSztosAkv3LRzKmX-115" value="NET&lt;br&gt;ep thread" style="rounded=1;whiteSpace=wrap;html=1;fillColor=#ffffff;fontColor=#000000;" parent="1" vertex="1">
          <mxGeometry x="50" y="1390" width="80" height="30" as="geometry" />
        </mxCell>
        <mxCell id="G7WEoSztosAkv3LRzKmX-116" style="edgeStyle=none;rounded=0;orthogonalLoop=1;jettySize=auto;html=1;exitX=1;exitY=0;exitDx=0;exitDy=0;entryX=0;entryY=0;entryDx=0;entryDy=0;" parent="1" source="G7WEoSztosAkv3LRzKmX-98" target="G7WEoSztosAkv3LRzKmX-103" edge="1">
          <mxGeometry relative="1" as="geometry">
            <mxPoint x="470" y="1490" as="targetPoint" />
          </mxGeometry>
        </mxCell>
        <mxCell id="G7WEoSztosAkv3LRzKmX-118" style="edgeStyle=none;rounded=0;orthogonalLoop=1;jettySize=auto;html=1;exitX=1;exitY=1;exitDx=0;exitDy=0;" parent="1" source="G7WEoSztosAkv3LRzKmX-102" edge="1">
          <mxGeometry relative="1" as="geometry">
            <mxPoint x="480" y="1570" as="targetPoint" />
          </mxGeometry>
        </mxCell>
        <mxCell id="G7WEoSztosAkv3LRzKmX-120" style="edgeStyle=none;rounded=0;orthogonalLoop=1;jettySize=auto;html=1;exitX=1;exitY=1;exitDx=0;exitDy=0;" parent="1" source="G7WEoSztosAkv3LRzKmX-119" edge="1">
          <mxGeometry relative="1" as="geometry">
            <mxPoint x="440" y="1660" as="targetPoint" />
          </mxGeometry>
        </mxCell>
        <mxCell id="G7WEoSztosAkv3LRzKmX-119" value="C" style="rounded=0;whiteSpace=wrap;html=1;fillColor=#B3B3B3;strokeColor=#666666;fontColor=#333333;verticalAlign=top;" parent="1" vertex="1">
          <mxGeometry x="240" y="1580" width="20" height="80" as="geometry" />
        </mxCell>
        <mxCell id="G7WEoSztosAkv3LRzKmX-122" value="" style="endArrow=none;html=1;strokeColor=#000000;fontColor=#000000;entryX=0.5;entryY=1;entryDx=0;entryDy=0;dashed=1;dashPattern=1 1;" parent="1" target="G7WEoSztosAkv3LRzKmX-138" edge="1">
          <mxGeometry width="50" height="50" relative="1" as="geometry">
            <mxPoint x="90" y="2100" as="sourcePoint" />
            <mxPoint x="370" y="2020" as="targetPoint" />
          </mxGeometry>
        </mxCell>
        <mxCell id="G7WEoSztosAkv3LRzKmX-123" value="" style="endArrow=none;html=1;strokeColor=#000000;fontColor=#000000;entryX=0.5;entryY=1;entryDx=0;entryDy=0;dashed=1;dashPattern=1 1;exitX=0.5;exitY=1;exitDx=0;exitDy=0;" parent="1" source="G7WEoSztosAkv3LRzKmX-126" edge="1">
          <mxGeometry width="50" height="50" relative="1" as="geometry">
            <mxPoint x="230" y="2120" as="sourcePoint" />
            <mxPoint x="229.71000000000004" y="1850" as="targetPoint" />
          </mxGeometry>
        </mxCell>
        <mxCell id="G7WEoSztosAkv3LRzKmX-124" value="" style="endArrow=none;html=1;strokeColor=#000000;fontColor=#000000;entryX=0.5;entryY=1;entryDx=0;entryDy=0;dashed=1;dashPattern=1 1;exitX=0.5;exitY=1;exitDx=0;exitDy=0;" parent="1" source="G7WEoSztosAkv3LRzKmX-129" edge="1">
          <mxGeometry width="50" height="50" relative="1" as="geometry">
            <mxPoint x="489.71000000000026" y="2220" as="sourcePoint" />
            <mxPoint x="489.71000000000026" y="1850" as="targetPoint" />
          </mxGeometry>
        </mxCell>
        <mxCell id="G7WEoSztosAkv3LRzKmX-125" value="" style="endArrow=none;html=1;strokeColor=#000000;fontColor=#000000;entryX=0.5;entryY=1;entryDx=0;entryDy=0;dashed=1;dashPattern=1 1;" parent="1" edge="1">
          <mxGeometry width="50" height="50" relative="1" as="geometry">
            <mxPoint x="630" y="2100" as="sourcePoint" />
            <mxPoint x="629.7100000000003" y="1850" as="targetPoint" />
          </mxGeometry>
        </mxCell>
        <mxCell id="G7WEoSztosAkv3LRzKmX-126" value="b" style="rounded=0;whiteSpace=wrap;html=1;verticalAlign=top;" parent="1" vertex="1">
          <mxGeometry x="220" y="1900" width="20" height="200" as="geometry" />
        </mxCell>
        <mxCell id="G7WEoSztosAkv3LRzKmX-127" value="" style="endArrow=none;html=1;strokeColor=#B3B3B3;strokeWidth=3;" parent="1" edge="1">
          <mxGeometry width="50" height="50" relative="1" as="geometry">
            <mxPoint x="360" y="2100" as="sourcePoint" />
            <mxPoint x="360" y="1860" as="targetPoint" />
          </mxGeometry>
        </mxCell>
        <mxCell id="G7WEoSztosAkv3LRzKmX-128" style="rounded=0;orthogonalLoop=1;jettySize=auto;html=1;exitX=0;exitY=0;exitDx=0;exitDy=0;entryX=1;entryY=0;entryDx=0;entryDy=0;" parent="1" source="G7WEoSztosAkv3LRzKmX-129" target="G7WEoSztosAkv3LRzKmX-130" edge="1">
          <mxGeometry relative="1" as="geometry">
            <mxPoint x="250" y="1920" as="targetPoint" />
          </mxGeometry>
        </mxCell>
        <mxCell id="G7WEoSztosAkv3LRzKmX-129" value="a" style="rounded=0;whiteSpace=wrap;html=1;verticalAlign=top;" parent="1" vertex="1">
          <mxGeometry x="480" y="1900" width="20" height="200" as="geometry" />
        </mxCell>
        <mxCell id="G7WEoSztosAkv3LRzKmX-130" value="A" style="rounded=0;whiteSpace=wrap;html=1;fillColor=#B3B3B3;strokeColor=#666666;fontColor=#333333;verticalAlign=top;" parent="1" vertex="1">
          <mxGeometry x="240" y="1920" width="20" height="80" as="geometry" />
        </mxCell>
        <mxCell id="G7WEoSztosAkv3LRzKmX-132" value="B" style="rounded=0;whiteSpace=wrap;html=1;fillColor=#B3B3B3;strokeColor=#666666;fontColor=#333333;verticalAlign=top;" parent="1" vertex="1">
          <mxGeometry x="460" y="1920" width="20" height="180" as="geometry" />
        </mxCell>
        <mxCell id="G7WEoSztosAkv3LRzKmX-133" style="edgeStyle=none;rounded=0;orthogonalLoop=1;jettySize=auto;html=1;exitX=0;exitY=0;exitDx=0;exitDy=0;" parent="1" source="G7WEoSztosAkv3LRzKmX-134" edge="1">
          <mxGeometry relative="1" as="geometry">
            <mxPoint x="310" y="1940" as="targetPoint" />
          </mxGeometry>
        </mxCell>
        <mxCell id="G7WEoSztosAkv3LRzKmX-134" value="c" style="rounded=0;whiteSpace=wrap;html=1;verticalAlign=top;" parent="1" vertex="1">
          <mxGeometry x="440" y="1940" width="20" height="160" as="geometry" />
        </mxCell>
        <mxCell id="G7WEoSztosAkv3LRzKmX-135" value="NET&lt;br&gt;user thread" style="rounded=1;whiteSpace=wrap;html=1;fillColor=#ffffff;fontColor=#000000;" parent="1" vertex="1">
          <mxGeometry x="190" y="1820" width="80" height="30" as="geometry" />
        </mxCell>
        <mxCell id="G7WEoSztosAkv3LRzKmX-136" value="APP&lt;br&gt;user thread" style="rounded=1;whiteSpace=wrap;html=1;fillColor=#ffffff;fontColor=#000000;" parent="1" vertex="1">
          <mxGeometry x="450" y="1820" width="80" height="30" as="geometry" />
        </mxCell>
        <mxCell id="G7WEoSztosAkv3LRzKmX-137" value="APP&lt;br&gt;ep thread" style="rounded=1;whiteSpace=wrap;html=1;fillColor=#ffffff;fontColor=#000000;" parent="1" vertex="1">
          <mxGeometry x="590" y="1820" width="80" height="30" as="geometry" />
        </mxCell>
        <mxCell id="G7WEoSztosAkv3LRzKmX-138" value="NET&lt;br&gt;ep thread" style="rounded=1;whiteSpace=wrap;html=1;fillColor=#ffffff;fontColor=#000000;" parent="1" vertex="1">
          <mxGeometry x="50" y="1820" width="80" height="30" as="geometry" />
        </mxCell>
        <mxCell id="G7WEoSztosAkv3LRzKmX-139" style="edgeStyle=none;rounded=0;orthogonalLoop=1;jettySize=auto;html=1;exitX=1;exitY=0;exitDx=0;exitDy=0;entryX=0;entryY=0;entryDx=0;entryDy=0;" parent="1" source="G7WEoSztosAkv3LRzKmX-126" target="G7WEoSztosAkv3LRzKmX-132" edge="1">
          <mxGeometry relative="1" as="geometry">
            <mxPoint x="470" y="1920" as="targetPoint" />
          </mxGeometry>
        </mxCell>
        <mxCell id="G7WEoSztosAkv3LRzKmX-140" style="edgeStyle=none;rounded=0;orthogonalLoop=1;jettySize=auto;html=1;exitX=1;exitY=1;exitDx=0;exitDy=0;" parent="1" source="G7WEoSztosAkv3LRzKmX-130" edge="1">
          <mxGeometry relative="1" as="geometry">
            <mxPoint x="400" y="2000" as="targetPoint" />
          </mxGeometry>
        </mxCell>
        <mxCell id="PQzGvBvh1XN56MC4Xkkl-2" value="b" style="rounded=0;whiteSpace=wrap;html=1;verticalAlign=top;" vertex="1" parent="1">
          <mxGeometry x="220" y="2280" width="20" height="20" as="geometry" />
        </mxCell>
        <mxCell id="PQzGvBvh1XN56MC4Xkkl-3" style="rounded=0;orthogonalLoop=1;jettySize=auto;html=1;exitX=0;exitY=0;exitDx=0;exitDy=0;entryX=1;entryY=0;entryDx=0;entryDy=0;" edge="1" source="PQzGvBvh1XN56MC4Xkkl-4" target="PQzGvBvh1XN56MC4Xkkl-5" parent="1">
          <mxGeometry relative="1" as="geometry">
            <mxPoint x="250" y="2300" as="targetPoint" />
          </mxGeometry>
        </mxCell>
        <mxCell id="PQzGvBvh1XN56MC4Xkkl-4" value="a" style="rounded=0;whiteSpace=wrap;html=1;verticalAlign=top;" vertex="1" parent="1">
          <mxGeometry x="480" y="2280" width="20" height="160" as="geometry" />
        </mxCell>
        <mxCell id="PQzGvBvh1XN56MC4Xkkl-5" value="A" style="rounded=0;whiteSpace=wrap;html=1;fillColor=#B3B3B3;strokeColor=#666666;fontColor=#333333;verticalAlign=top;" vertex="1" parent="1">
          <mxGeometry x="310" y="2300" width="20" height="140" as="geometry" />
        </mxCell>
        <mxCell id="PQzGvBvh1XN56MC4Xkkl-6" value="B" style="rounded=0;whiteSpace=wrap;html=1;fillColor=#B3B3B3;strokeColor=#666666;fontColor=#333333;verticalAlign=top;" vertex="1" parent="1">
          <mxGeometry x="620" y="2300" width="20" height="270" as="geometry" />
        </mxCell>
        <mxCell id="PQzGvBvh1XN56MC4Xkkl-7" value="" style="rounded=0;whiteSpace=wrap;html=1;verticalAlign=top;" vertex="1" parent="1">
          <mxGeometry x="600" y="2460" width="20" height="90" as="geometry" />
        </mxCell>
        <mxCell id="PQzGvBvh1XN56MC4Xkkl-8" value="C" style="rounded=0;whiteSpace=wrap;html=1;fillColor=#B3B3B3;strokeColor=#666666;fontColor=#333333;verticalAlign=top;" vertex="1" parent="1">
          <mxGeometry x="240" y="2460" width="20" height="90" as="geometry" />
        </mxCell>
        <mxCell id="PQzGvBvh1XN56MC4Xkkl-9" style="edgeStyle=none;rounded=0;orthogonalLoop=1;jettySize=auto;html=1;exitX=1;exitY=1;exitDx=0;exitDy=0;dashed=1;entryX=0;entryY=1;entryDx=0;entryDy=0;" edge="1" source="PQzGvBvh1XN56MC4Xkkl-8" target="PQzGvBvh1XN56MC4Xkkl-7" parent="1">
          <mxGeometry relative="1" as="geometry">
            <mxPoint x="620" y="2430" as="targetPoint" />
            <mxPoint x="220" y="2420" as="sourcePoint" />
          </mxGeometry>
        </mxCell>
        <mxCell id="PQzGvBvh1XN56MC4Xkkl-10" value="" style="endArrow=classic;html=1;strokeColor=#000000;fontColor=#000000;exitX=0;exitY=0;exitDx=0;exitDy=0;entryX=1;entryY=0;entryDx=0;entryDy=0;" edge="1" source="PQzGvBvh1XN56MC4Xkkl-7" target="PQzGvBvh1XN56MC4Xkkl-8" parent="1">
          <mxGeometry width="50" height="50" relative="1" as="geometry">
            <mxPoint x="490" y="2410" as="sourcePoint" />
            <mxPoint x="260" y="2330" as="targetPoint" />
          </mxGeometry>
        </mxCell>
        <mxCell id="PQzGvBvh1XN56MC4Xkkl-11" style="edgeStyle=none;rounded=0;orthogonalLoop=1;jettySize=auto;html=1;dashed=1;entryX=1;entryY=1;entryDx=0;entryDy=0;exitX=0;exitY=1;exitDx=0;exitDy=0;" edge="1" source="PQzGvBvh1XN56MC4Xkkl-6" target="PQzGvBvh1XN56MC4Xkkl-24" parent="1">
          <mxGeometry relative="1" as="geometry">
            <mxPoint x="250" y="2480" as="targetPoint" />
            <mxPoint x="620" y="2470" as="sourcePoint" />
          </mxGeometry>
        </mxCell>
        <mxCell id="PQzGvBvh1XN56MC4Xkkl-12" value="" style="endArrow=classic;html=1;strokeColor=#000000;fontColor=#000000;entryX=0;entryY=1;entryDx=0;entryDy=0;dashed=1;exitX=1;exitY=1;exitDx=0;exitDy=0;" edge="1" target="PQzGvBvh1XN56MC4Xkkl-4" parent="1" source="PQzGvBvh1XN56MC4Xkkl-5">
          <mxGeometry width="50" height="50" relative="1" as="geometry">
            <mxPoint x="380" y="2440" as="sourcePoint" />
            <mxPoint x="470" y="2450" as="targetPoint" />
          </mxGeometry>
        </mxCell>
        <mxCell id="PQzGvBvh1XN56MC4Xkkl-13" value="baremetal&lt;br&gt;main thread" style="rounded=1;whiteSpace=wrap;html=1;fillColor=#ffffff;fontColor=#000000;" vertex="1" parent="1">
          <mxGeometry x="190" y="2200" width="80" height="30" as="geometry" />
        </mxCell>
        <mxCell id="PQzGvBvh1XN56MC4Xkkl-14" value="USER&lt;br&gt;thread" style="rounded=1;whiteSpace=wrap;html=1;fillColor=#ffffff;fontColor=#000000;" vertex="1" parent="1">
          <mxGeometry x="450" y="2200" width="80" height="30" as="geometry" />
        </mxCell>
        <mxCell id="PQzGvBvh1XN56MC4Xkkl-15" value="EP&lt;br&gt;thread" style="rounded=1;whiteSpace=wrap;html=1;fillColor=#ffffff;fontColor=#000000;" vertex="1" parent="1">
          <mxGeometry x="590" y="2200" width="80" height="30" as="geometry" />
        </mxCell>
        <mxCell id="PQzGvBvh1XN56MC4Xkkl-17" style="edgeStyle=none;rounded=0;orthogonalLoop=1;jettySize=auto;html=1;exitX=1;exitY=0;exitDx=0;exitDy=0;entryX=0;entryY=0;entryDx=0;entryDy=0;" edge="1" source="PQzGvBvh1XN56MC4Xkkl-2" target="PQzGvBvh1XN56MC4Xkkl-6" parent="1">
          <mxGeometry relative="1" as="geometry">
            <mxPoint x="470" y="2300" as="targetPoint" />
          </mxGeometry>
        </mxCell>
        <mxCell id="PQzGvBvh1XN56MC4Xkkl-20" value="baremetal&lt;br&gt;IRQ" style="rounded=1;whiteSpace=wrap;html=1;fillColor=#ffffff;fontColor=#000000;" vertex="1" parent="1">
          <mxGeometry x="280" y="2200" width="80" height="30" as="geometry" />
        </mxCell>
        <mxCell id="PQzGvBvh1XN56MC4Xkkl-23" value="" style="rounded=0;whiteSpace=wrap;html=1;verticalAlign=top;dashed=1;" vertex="1" parent="1">
          <mxGeometry x="220" y="2300" width="20" height="140" as="geometry" />
        </mxCell>
        <mxCell id="PQzGvBvh1XN56MC4Xkkl-24" value="" style="rounded=0;whiteSpace=wrap;html=1;verticalAlign=top;" vertex="1" parent="1">
          <mxGeometry x="220" y="2440" width="20" height="130" as="geometry" />
        </mxCell>
        <mxCell id="PQzGvBvh1XN56MC4Xkkl-25" value="c" style="rounded=0;whiteSpace=wrap;html=1;verticalAlign=top;dashed=1;" vertex="1" parent="1">
          <mxGeometry x="600" y="2350" width="20" height="110" as="geometry" />
        </mxCell>
      </root>
    </mxGraphModel>
  </diagram>
</mxfile>
